HIERARCHY
ROOT Hips
{
	OFFSET 0.00000 0.00000 0.00000
	CHANNELS 6 Xposition Yposition Zposition Yrotation Zrotation Xrotation 
	JOINT Lumbar
	{
		OFFSET 0 0 0
		CHANNELS 3 Zrotation Xrotation Yrotation
		JOINT Neck
		{
			OFFSET 0.00 0.2701 0.00
			CHANNELS 3 Zrotation Xrotation Yrotation
			End Site
			{
				OFFSET 0.00 0.1379 0.00
			}
		}
		JOINT RightShoulder
		{
			OFFSET 0.0119 0.2289 0.1181
			CHANNELS 3 Zrotation Xrotation Yrotation
			JOINT RightElbow
			{
				OFFSET 0.00 -0.1475 0.00
				CHANNELS 2 Zrotation Yrotation
				JOINT RightWrist
				{
					OFFSET 0.00 -0.1605 0.00
					CHANNELS 2 Zrotation Xrotation
					End Site
					{
						OFFSET 0.0040 -0.1068 0.0006
					}
				}
			}
		}
		JOINT LeftShoulder
		{
			OFFSET 0.0119 0.2289 -0.1181
			CHANNELS 3 Zrotation Xrotation Yrotation
			JOINT LeftElbow
			{
				OFFSET 0.00 -0.1475 0.00
				CHANNELS 2 Zrotation Yrotation
				JOINT LeftWrist
				{
					OFFSET 0.00 -0.1605 0.00
					CHANNELS 2 Zrotation Xrotation
					End Site
					{
						OFFSET 0.0040 -0.1068 -0.0006
					}
				}
			}
		}
	}
	JOINT RightHip
	{
		OFFSET 0.0316 -0.0424 0.0458
		CHANNELS 3 Zrotation Xrotation Yrotation
		JOINT RightKnee
		{
			OFFSET 0.00 -0.2438 0.00
			CHANNELS 1 Zrotation
			JOINT RightAnkle
			{
				OFFSET 0.00 -0.2449 0.00
				CHANNELS 3 Zrotation Xrotation Yrotation
				End Site
				{
					OFFSET 0.1237 -0.0542 0.0051
				}
			}
		}
	}
	JOINT LeftHip
	{
		OFFSET 0.0316 -0.0424 -0.0458
		CHANNELS 3 Zrotation Xrotation Yrotation
		JOINT LeftKnee
		{
			OFFSET 0.00 -0.2438 0.00
			CHANNELS 1 Zrotation
			JOINT LeftAnkle
			{
				OFFSET 0.00 -0.2449 0.00
				CHANNELS 3 Zrotation Xrotation Yrotation
				End Site
				{
					OFFSET 0.1237 -0.0542 -0.0051
				}
			}
		}
	}
}
MOTION
Frames: 13
Frame Time: 0.02
0.18763 -0.40419 0.18862 -31.62033 -76.51874 -89.9983 -1.98039 -7.50003 3.93768 -4.81107 -10.33638 -0.83079 131.13907 -23.08312 49.90385 72.32366 125.19975 -49.71486 -8.4538 131.58053 30.85667 -46.45901 79.44574 -122.75332 -48.09335 8.15532 40.40495 -16.78336 9.47328 -59.53197 -6.0404 -4.59059 -3.04177 95.99317 -13.92198 25.50962 -148.91173 23.89194 -35.80894 -17.18778
0.18761 -0.4042 0.18862 -31.60445 -76.51628 -89.9985 -1.9749 -7.49007 3.93256 -4.80643 -10.30462 -0.83079 131.83682 -23.50907 51.27665 72.26862 126.79492 -52.7656 -8.65248 132.72726 31.57492 -48.50394 79.38914 -124.11471 -51.91442 8.27668 40.38895 -16.73771 9.52992 -59.53232 -6.0462 -4.59964 -3.04628 95.95847 -13.92223 25.49232 -148.91173 23.89205 -35.80919 -17.18804
0.1876 -0.40419 0.18862 -31.58976 -76.50675 -89.99883 -1.96901 -7.48288 3.9281 -4.7937 -10.26557 -0.83079 132.73784 -24.03744 53.02394 72.17705 128.82511 -56.69388 -8.90108 134.18215 32.48494 -51.08174 79.31848 -125.81994 -56.74632 8.42566 40.37756 -16.69022 9.59873 -59.53079 -6.05242 -4.60915 -3.05071 95.94444 -13.92234 25.48236 -148.91173 23.8921 -35.80931 -17.18816
0.18759 -0.40419 0.18862 -31.57464 -76.50118 -89.99909 -1.96362 -7.47428 3.92353 -4.78554 -10.23134 -0.83079 133.52163 -24.50663 54.55144 72.10645 130.59755 -60.11112 -9.11972 135.41658 33.25719 -53.27701 79.25691 -127.27696 -60.85412 8.55386 40.3637 -16.64456 9.66004 -59.53008 -6.0583 -4.61826 -3.05508 95.91914 -13.92249 25.46806 -148.91173 23.89216 -35.80946 -17.18832
0.18758 -0.40418 0.18863 -31.55899 -76.49267 -89.99938 -1.95671 -7.46618 3.91815 -4.7734 -10.191 -0.83079 134.41729 -25.03426 56.30118 72.01779 132.63726 -64.02993 -9.37076 136.98982 34.24327 -56.06394 79.18478 -129.1225 -66.0782 8.71647 40.35108 -16.5947 9.72993 -59.52918 -6.06479 -4.62817 -3.05983 95.90024 -13.92274 25.45814 -148.91173 23.89228 -35.80972 -17.18859
0.18757 -0.40419 0.18863 -31.54475 -76.48849 -89.99963 -1.95292 -7.45778 3.9146 -4.76774 -10.16145 -0.83079 135.12608 -25.46265 57.67338 71.9577 134.22003 -67.10454 -9.56561 137.94147 34.83618 -57.76395 79.13074 -130.25242 -69.25271 8.8151 40.33714 -16.5532 9.78454 -59.52833 -6.07012 -4.63652 -3.06379 95.87372 -13.92275 25.44086 -148.91173 23.89228 -35.80973 -17.1886
0.18759 -0.40422 0.18862 -31.53424 -76.49833 -89.99972 -1.95793 -7.44752 3.91623 -4.78167 -10.16471 -0.83079 135.26104 -25.58964 57.89218 71.98817 134.40883 -67.59201 -9.59171 136.96475 34.21046 -56.09524 79.13322 -129.16763 -66.07359 8.71752 40.31802 -16.53464 9.79654 -59.52837 -6.07212 -4.6404 -3.0656 95.81842 -13.92202 25.40046 -148.91173 23.89197 -35.80901 -17.18786
0.18761 -0.40425 0.18861 -31.52511 -76.51268 -89.99976 -1.96609 -7.43695 3.91963 -4.80249 -10.17884 -0.83079 135.20049 -25.61234 57.71797 72.04815 134.12244 -67.1984 -9.55941 135.37265 33.19546 -53.35039 79.15377 -127.37421 -60.86492 8.55662 40.29752 -16.52464 9.79229 -59.52854 -6.07294 -4.64271 -3.06664 95.75538 -13.92107 25.35255 -148.91173 23.89155 -35.80806 -17.18688
0.18763 -0.40429 0.1886 -31.51528 -76.52473 -89.99981 -1.9728 -7.42681 3.922 -4.82038 -10.18714 -0.83079 135.23479 -25.68428 57.73641 72.09282 134.0719 -67.23655 -9.55465 134.15406 32.41638 -51.2574 79.16386 -126.00887 -56.88547 8.43332 40.27796 -16.51108 9.79379 -59.52851 -6.07432 -4.64578 -3.06805 95.69785 -13.92027 25.3087 -148.91173 23.8912 -35.80726 -17.18606
0.18764 -0.40432 0.18859 -31.50575 -76.53763 -89.9999 -1.9796 -7.41558 3.92532 -4.83713 -10.1989 -0.83079 135.25455 -25.75446 57.7158 72.14422 133.96463 -67.19204 -9.54796 132.56273 31.40287 -48.5176 79.1828 -124.22214 -51.6871 8.27485 40.25723 -16.49608 9.80254 -59.52897 -6.07561 -4.64865 -3.06936 95.63275 -13.91925 25.26241 -148.91173 23.89076 -35.80625 -17.18502
0.18766 -0.40435 0.18858 -31.49595 -76.5499 -89.9999 -1.98693 -7.40647 3.92711 -4.85802 -10.20618 -0.83079 135.25102 -25.79924 57.66958 72.18911 133.84216 -67.07569 -9.53009 131.58189 30.77279 -46.83541 79.18797 -123.12271 -48.48125 8.17287 40.23857 -16.48611 9.79227 -59.5285 -6.07681 -4.65156 -3.0707 95.58116 -13.91863 25.2193 -148.91173 23.89049 -35.80563 -17.18438
0.1877 -0.40435 0.18859 -31.48471 -76.55957 -89.99962 -1.99513 -7.40344 3.92394 -4.88858 -10.19802 -0.83079 135.2683 -25.82399 57.72152 72.20859 133.89514 -67.14997 -9.5018 132.57413 31.38297 -48.57287 79.14921 -124.24789 -51.71984 8.2541 40.22572 -16.48823 9.73281 -59.5251 -6.07799 -4.65498 -3.07223 95.57014 -13.91925 25.18679 -148.91173 23.89076 -35.80625 -17.18501
0.18773 -0.40435 0.1886 -31.47319 -76.56843 -89.99925 -2.00372 -7.40248 3.91922 -4.92317 -10.18506 -0.83079 135.26124 -25.82174 57.7463 72.22071 133.91248 -67.13211 -9.46341 134.17784 32.37727 -51.37013 79.0963 -126.06215 -56.95506 8.3923 40.21501 -16.49501 9.65497 -59.52082 -6.07914 -4.6585 -3.07381 95.57271 -13.92026 25.15772 -148.91173 23.8912 -35.80726 -17.18606
